<svg width="103" height="36" viewBox="0 0 103 36" fill="none" xmlns="http://www.w3.org/2000/svg">
<path d="M21.0001 12.0312L18.5001 12.0312C18.3031 12.0312 18.108 12.07 17.926 12.1454C17.7441 12.2208 17.5787 12.3312 17.4393 12.4705C17.3001 12.6099 17.1896 12.7753 17.1142 12.9572C17.0388 13.1392 17 13.3343 17 13.5312L17 19.0313C16.5 21.0308 16.4065 21.6247 15 23.0313C13.5935 24.4378 12.4892 25.5312 10.5 25.5313C9.51511 25.5313 8.90995 25.4082 8 25.0312C7.09004 24.6543 6.19645 23.7277 5.5 23.0313C4.80356 22.3348 4.87691 22.4412 4.5 21.5312C4.12309 20.6213 4.00003 20.0162 4.00004 19.0312L4.00004 13.5317C4.0001 13.3347 3.96134 13.1395 3.88599 12.9575C3.81063 12.7755 3.70015 12.61 3.56086 12.4707C3.42155 12.3314 3.25617 12.2209 3.07415 12.1454C2.89214 12.07 2.69705 12.0312 2.50002 12.0312L-7.43095e-07 12.0312L-4.15255e-07 18.5313C-3.55061e-07 19.9102 0.271592 21.2756 0.799269 22.5495C1.32695 23.8234 2.10038 24.9809 3.07539 25.9559C4.05042 26.9309 5.20793 27.7044 6.48186 28.232C7.75578 28.7597 9.12116 29.0313 10.5 29.0312C13.2848 29.0312 15.9555 27.925 17.9247 25.9559C19.8938 23.9868 21.0001 21.3161 21.0001 18.5313L21.0001 12.0312Z" fill="#EA580C"/>
<circle cx="4.5" cy="11.4688" r="4.5" fill="#0F172A"/>
<path d="M33.0312 11.5938V14.7812H23.1875V11.5938H33.0312ZM25.625 7.42188H30.125V23.4062C30.125 23.8958 30.1875 24.2708 30.3125 24.5312C30.4479 24.7917 30.6458 24.974 30.9062 25.0781C31.1667 25.1719 31.4948 25.2188 31.8906 25.2188C32.1719 25.2188 32.4219 25.2083 32.6406 25.1875C32.8698 25.1562 33.0625 25.125 33.2188 25.0938L33.2344 28.4062C32.849 28.5312 32.4323 28.6302 31.9844 28.7031C31.5365 28.776 31.0417 28.8125 30.5 28.8125C29.5104 28.8125 28.6458 28.651 27.9062 28.3281C27.1771 27.9948 26.6146 27.4635 26.2188 26.7344C25.8229 26.0052 25.625 25.0469 25.625 23.8594V7.42188ZM44.7188 24.6875V17.1562C44.7188 16.6146 44.6302 16.151 44.4531 15.7656C44.276 15.3698 44 15.0625 43.625 14.8438C43.2604 14.625 42.7865 14.5156 42.2031 14.5156C41.7031 14.5156 41.2708 14.6042 40.9062 14.7812C40.5417 14.9479 40.2604 15.1927 40.0625 15.5156C39.8646 15.8281 39.7656 16.1979 39.7656 16.625H35.2656C35.2656 15.9062 35.4323 15.224 35.7656 14.5781C36.099 13.9323 36.5833 13.3646 37.2188 12.875C37.8542 12.375 38.6094 11.9844 39.4844 11.7031C40.3698 11.4219 41.3594 11.2812 42.4531 11.2812C43.7656 11.2812 44.9323 11.5 45.9531 11.9375C46.974 12.375 47.776 13.0312 48.3594 13.9062C48.9531 14.7812 49.25 15.875 49.25 17.1875V24.4219C49.25 25.349 49.3073 26.1094 49.4219 26.7031C49.5365 27.2865 49.7031 27.7969 49.9219 28.2344V28.5H45.375C45.1562 28.0417 44.9896 27.4688 44.875 26.7812C44.7708 26.0833 44.7188 25.3854 44.7188 24.6875ZM45.3125 18.2031L45.3438 20.75H42.8281C42.2344 20.75 41.7188 20.8177 41.2812 20.9531C40.8438 21.0885 40.4844 21.2812 40.2031 21.5312C39.9219 21.7708 39.7135 22.0521 39.5781 22.375C39.4531 22.6979 39.3906 23.0521 39.3906 23.4375C39.3906 23.8229 39.4792 24.1719 39.6562 24.4844C39.8333 24.7865 40.0885 25.026 40.4219 25.2031C40.7552 25.3698 41.1458 25.4531 41.5938 25.4531C42.2708 25.4531 42.8594 25.3177 43.3594 25.0469C43.8594 24.776 44.2448 24.4427 44.5156 24.0469C44.7969 23.651 44.9427 23.276 44.9531 22.9219L46.1406 24.8281C45.974 25.2552 45.7448 25.6979 45.4531 26.1562C45.1719 26.6146 44.8125 27.0469 44.375 27.4531C43.9375 27.849 43.4115 28.1771 42.7969 28.4375C42.1823 28.6875 41.4531 28.8125 40.6094 28.8125C39.5365 28.8125 38.5625 28.599 37.6875 28.1719C36.8229 27.7344 36.1354 27.1354 35.625 26.375C35.125 25.6042 34.875 24.7292 34.875 23.75C34.875 22.8646 35.0417 22.0781 35.375 21.3906C35.7083 20.7031 36.1979 20.125 36.8438 19.6562C37.5 19.1771 38.3177 18.8177 39.2969 18.5781C40.276 18.3281 41.4115 18.2031 42.7031 18.2031H45.3125ZM57.4688 4.5V28.5H52.9531V4.5H57.4688ZM65.6875 4.48438V28.5H61.1875V4.48438H65.6875ZM76.3438 11.5938L69 19.9688L65.0625 23.9531L63.4219 20.7031L66.5469 16.7344L70.9375 11.5938H76.3438ZM71.6719 28.5L66.6719 20.6875L69.7812 17.9688L76.8594 28.5H71.6719ZM87.4219 23.8281C87.4219 23.5052 87.3281 23.2135 87.1406 22.9531C86.9531 22.6927 86.6042 22.4531 86.0938 22.2344C85.5938 22.0052 84.8698 21.7969 83.9219 21.6094C83.0677 21.4219 82.2708 21.1875 81.5312 20.9062C80.8021 20.6146 80.1667 20.2656 79.625 19.8594C79.0938 19.4531 78.6771 18.974 78.375 18.4219C78.0729 17.8594 77.9219 17.2188 77.9219 16.5C77.9219 15.7917 78.0729 15.125 78.375 14.5C78.6875 13.875 79.1302 13.3229 79.7031 12.8438C80.2865 12.3542 80.9948 11.974 81.8281 11.7031C82.6719 11.4219 83.6198 11.2812 84.6719 11.2812C86.1406 11.2812 87.401 11.5156 88.4531 11.9844C89.5156 12.4531 90.3281 13.099 90.8906 13.9219C91.4635 14.7344 91.75 15.6615 91.75 16.7031H87.25C87.25 16.2656 87.1562 15.875 86.9688 15.5312C86.7917 15.1771 86.5104 14.901 86.125 14.7031C85.75 14.4948 85.2604 14.3906 84.6562 14.3906C84.1562 14.3906 83.724 14.4792 83.3594 14.6562C82.9948 14.8229 82.7135 15.0521 82.5156 15.3438C82.3281 15.625 82.2344 15.9375 82.2344 16.2812C82.2344 16.5417 82.2865 16.776 82.3906 16.9844C82.5052 17.1823 82.6875 17.3646 82.9375 17.5312C83.1875 17.6979 83.5104 17.8542 83.9062 18C84.3125 18.1354 84.8125 18.2604 85.4062 18.375C86.625 18.625 87.7135 18.9531 88.6719 19.3594C89.6302 19.7552 90.3906 20.2969 90.9531 20.9844C91.5156 21.6615 91.7969 22.5521 91.7969 23.6562C91.7969 24.4062 91.6302 25.0938 91.2969 25.7188C90.9635 26.3438 90.4844 26.8906 89.8594 27.3594C89.2344 27.8177 88.4844 28.1771 87.6094 28.4375C86.7448 28.6875 85.7708 28.8125 84.6875 28.8125C83.1146 28.8125 81.7812 28.5312 80.6875 27.9688C79.6042 27.4062 78.7812 26.6927 78.2188 25.8281C77.6667 24.9531 77.3906 24.0573 77.3906 23.1406H81.6562C81.6771 23.7552 81.8333 24.25 82.125 24.625C82.4271 25 82.8073 25.2708 83.2656 25.4375C83.7344 25.6042 84.2396 25.6875 84.7812 25.6875C85.3646 25.6875 85.849 25.6094 86.2344 25.4531C86.6198 25.2865 86.9115 25.0677 87.1094 24.7969C87.3177 24.5156 87.4219 24.1927 87.4219 23.8281Z" fill="#0F172A"/>
<path d="M41.3613 33.9863H40.6367V33.5293H41.3613C41.4733 33.5293 41.5645 33.5111 41.6348 33.4746C41.7051 33.4368 41.7565 33.3848 41.7891 33.3184C41.8216 33.252 41.8379 33.1771 41.8379 33.0938C41.8379 33.0091 41.8216 32.9303 41.7891 32.8574C41.7565 32.7845 41.7051 32.7259 41.6348 32.6816C41.5645 32.6374 41.4733 32.6152 41.3613 32.6152H40.8398V35H40.2539V32.1562H41.3613C41.584 32.1562 41.7747 32.1966 41.9336 32.2773C42.0938 32.3568 42.2161 32.4668 42.3008 32.6074C42.3854 32.748 42.4277 32.9089 42.4277 33.0898C42.4277 33.2734 42.3854 33.4323 42.3008 33.5664C42.2161 33.7005 42.0938 33.804 41.9336 33.877C41.7747 33.9499 41.584 33.9863 41.3613 33.9863ZM42.6797 33.9648V33.9238C42.6797 33.7689 42.7018 33.6263 42.7461 33.4961C42.7904 33.3646 42.8548 33.2507 42.9395 33.1543C43.0241 33.0579 43.1283 32.9831 43.252 32.9297C43.3757 32.875 43.5176 32.8477 43.6777 32.8477C43.8379 32.8477 43.9805 32.875 44.1055 32.9297C44.2305 32.9831 44.3353 33.0579 44.4199 33.1543C44.5059 33.2507 44.571 33.3646 44.6152 33.4961C44.6595 33.6263 44.6816 33.7689 44.6816 33.9238V33.9648C44.6816 34.1185 44.6595 34.2611 44.6152 34.3926C44.571 34.5228 44.5059 34.6367 44.4199 34.7344C44.3353 34.8307 44.2311 34.9056 44.1074 34.959C43.9837 35.0124 43.8418 35.0391 43.6816 35.0391C43.5215 35.0391 43.3789 35.0124 43.2539 34.959C43.1302 34.9056 43.0254 34.8307 42.9395 34.7344C42.8548 34.6367 42.7904 34.5228 42.7461 34.3926C42.7018 34.2611 42.6797 34.1185 42.6797 33.9648ZM43.2422 33.9238V33.9648C43.2422 34.0534 43.25 34.1361 43.2656 34.2129C43.2812 34.2897 43.306 34.3574 43.3398 34.416C43.375 34.4733 43.4206 34.5182 43.4766 34.5508C43.5326 34.5833 43.6009 34.5996 43.6816 34.5996C43.7598 34.5996 43.8268 34.5833 43.8828 34.5508C43.9388 34.5182 43.9837 34.4733 44.0176 34.416C44.0514 34.3574 44.0762 34.2897 44.0918 34.2129C44.1087 34.1361 44.1172 34.0534 44.1172 33.9648V33.9238C44.1172 33.8379 44.1087 33.7572 44.0918 33.6816C44.0762 33.6048 44.0508 33.5371 44.0156 33.4785C43.9818 33.4186 43.9368 33.3717 43.8809 33.3379C43.8249 33.304 43.7572 33.2871 43.6777 33.2871C43.5983 33.2871 43.5306 33.304 43.4746 33.3379C43.4199 33.3717 43.375 33.4186 43.3398 33.4785C43.306 33.5371 43.2812 33.6048 43.2656 33.6816C43.25 33.7572 43.2422 33.8379 43.2422 33.9238ZM45.6309 34.4531L46.0703 32.8867H46.4277L46.3125 33.502L45.873 35H45.5742L45.6309 34.4531ZM45.4082 32.8867L45.7227 34.4512L45.752 35H45.4004L44.8652 32.8867H45.4082ZM46.8301 34.4258L47.1367 32.8867H47.6816L47.1465 35H46.7969L46.8301 34.4258ZM46.4766 32.8867L46.9141 34.4414L46.9746 35H46.6738L46.2344 33.5039L46.123 32.8867H46.4766ZM48.9375 35.0391C48.7734 35.0391 48.6263 35.013 48.4961 34.9609C48.3659 34.9076 48.2552 34.834 48.1641 34.7402C48.0742 34.6465 48.0052 34.5378 47.957 34.4141C47.9089 34.2891 47.8848 34.1562 47.8848 34.0156V33.9375C47.8848 33.7773 47.9076 33.6309 47.9531 33.498C47.9987 33.3652 48.0638 33.25 48.1484 33.1523C48.2344 33.0547 48.3385 32.9798 48.4609 32.9277C48.5833 32.8743 48.7214 32.8477 48.875 32.8477C49.0247 32.8477 49.1576 32.8724 49.2734 32.9219C49.3893 32.9714 49.4863 33.0417 49.5645 33.1328C49.6439 33.224 49.7038 33.3333 49.7441 33.4609C49.7845 33.5872 49.8047 33.7279 49.8047 33.8828V34.1172H48.125V33.7422H49.252V33.6992C49.252 33.6211 49.2376 33.5514 49.209 33.4902C49.1816 33.4277 49.14 33.3783 49.084 33.3418C49.028 33.3053 48.9564 33.2871 48.8691 33.2871C48.7949 33.2871 48.7311 33.3034 48.6777 33.3359C48.6243 33.3685 48.5807 33.4141 48.5469 33.4727C48.5143 33.5312 48.4896 33.6003 48.4727 33.6797C48.457 33.7578 48.4492 33.8438 48.4492 33.9375V34.0156C48.4492 34.1003 48.4609 34.1784 48.4844 34.25C48.5091 34.3216 48.5436 34.3835 48.5879 34.4355C48.6335 34.4876 48.6882 34.528 48.752 34.5566C48.8171 34.5853 48.8906 34.5996 48.9727 34.5996C49.0742 34.5996 49.1686 34.5801 49.2559 34.541C49.3444 34.5007 49.4206 34.4401 49.4844 34.3594L49.7578 34.6562C49.7135 34.7201 49.653 34.7812 49.5762 34.8398C49.5007 34.8984 49.4095 34.9466 49.3027 34.9844C49.196 35.0208 49.0742 35.0391 48.9375 35.0391ZM50.6875 33.3477V35H50.125V32.8867H50.6543L50.6875 33.3477ZM51.3242 32.873L51.3145 33.3945C51.2871 33.3906 51.2539 33.3874 51.2148 33.3848C51.1771 33.3809 51.1426 33.3789 51.1113 33.3789C51.0319 33.3789 50.9629 33.3893 50.9043 33.4102C50.847 33.4297 50.7988 33.459 50.7598 33.498C50.722 33.5371 50.6934 33.5846 50.6738 33.6406C50.6556 33.6966 50.6452 33.7604 50.6426 33.832L50.5293 33.7969C50.5293 33.6602 50.543 33.5345 50.5703 33.4199C50.5977 33.304 50.6374 33.2031 50.6895 33.1172C50.7428 33.0312 50.8079 32.9648 50.8848 32.918C50.9616 32.8711 51.0495 32.8477 51.1484 32.8477C51.1797 32.8477 51.2116 32.8503 51.2441 32.8555C51.2767 32.8594 51.3034 32.8652 51.3242 32.873ZM52.5234 35.0391C52.3594 35.0391 52.2122 35.013 52.082 34.9609C51.9518 34.9076 51.8411 34.834 51.75 34.7402C51.6602 34.6465 51.5911 34.5378 51.543 34.4141C51.4948 34.2891 51.4707 34.1562 51.4707 34.0156V33.9375C51.4707 33.7773 51.4935 33.6309 51.5391 33.498C51.5846 33.3652 51.6497 33.25 51.7344 33.1523C51.8203 33.0547 51.9245 32.9798 52.0469 32.9277C52.1693 32.8743 52.3073 32.8477 52.4609 32.8477C52.6107 32.8477 52.7435 32.8724 52.8594 32.9219C52.9753 32.9714 53.0723 33.0417 53.1504 33.1328C53.2298 33.224 53.2897 33.3333 53.3301 33.4609C53.3704 33.5872 53.3906 33.7279 53.3906 33.8828V34.1172H51.7109V33.7422H52.8379V33.6992C52.8379 33.6211 52.8236 33.5514 52.7949 33.4902C52.7676 33.4277 52.7259 33.3783 52.6699 33.3418C52.6139 33.3053 52.5423 33.2871 52.4551 33.2871C52.3809 33.2871 52.3171 33.3034 52.2637 33.3359C52.2103 33.3685 52.1667 33.4141 52.1328 33.4727C52.1003 33.5312 52.0755 33.6003 52.0586 33.6797C52.043 33.7578 52.0352 33.8438 52.0352 33.9375V34.0156C52.0352 34.1003 52.0469 34.1784 52.0703 34.25C52.0951 34.3216 52.1296 34.3835 52.1738 34.4355C52.2194 34.4876 52.2741 34.528 52.3379 34.5566C52.403 34.5853 52.4766 34.5996 52.5586 34.5996C52.6602 34.5996 52.7546 34.5801 52.8418 34.541C52.9303 34.5007 53.0065 34.4401 53.0703 34.3594L53.3438 34.6562C53.2995 34.7201 53.2389 34.7812 53.1621 34.8398C53.0866 34.8984 52.9954 34.9466 52.8887 34.9844C52.7819 35.0208 52.6602 35.0391 52.5234 35.0391ZM54.959 34.5391V32H55.5254V35H55.0156L54.959 34.5391ZM53.623 33.9688V33.9277C53.623 33.7663 53.6413 33.6198 53.6777 33.4883C53.7142 33.3555 53.7676 33.2415 53.8379 33.1465C53.9082 33.0514 53.9948 32.9779 54.0977 32.9258C54.2005 32.8737 54.3177 32.8477 54.4492 32.8477C54.5729 32.8477 54.681 32.8737 54.7734 32.9258C54.8672 32.9779 54.9466 33.0521 55.0117 33.1484C55.0781 33.2435 55.1315 33.3561 55.1719 33.4863C55.2122 33.6152 55.2415 33.7565 55.2598 33.9102V34C55.2415 34.1471 55.2122 34.2839 55.1719 34.4102C55.1315 34.5365 55.0781 34.6471 55.0117 34.7422C54.9466 34.8359 54.8672 34.9089 54.7734 34.9609C54.6797 35.013 54.5703 35.0391 54.4453 35.0391C54.3138 35.0391 54.1966 35.0124 54.0938 34.959C53.9922 34.9056 53.9062 34.8307 53.8359 34.7344C53.7669 34.638 53.7142 34.5247 53.6777 34.3945C53.6413 34.2643 53.623 34.1224 53.623 33.9688ZM54.1855 33.9277V33.9688C54.1855 34.056 54.1921 34.1374 54.2051 34.2129C54.2194 34.2884 54.2422 34.3555 54.2734 34.4141C54.306 34.4714 54.3477 34.5163 54.3984 34.5488C54.4505 34.5801 54.5137 34.5957 54.5879 34.5957C54.6842 34.5957 54.7637 34.5742 54.8262 34.5312C54.8887 34.487 54.9362 34.4264 54.9688 34.3496C55.0026 34.2728 55.0221 34.1842 55.0273 34.084V33.8281C55.0234 33.7461 55.0117 33.6725 54.9922 33.6074C54.974 33.541 54.9466 33.4844 54.9102 33.4375C54.875 33.3906 54.8307 33.3542 54.7773 33.3281C54.7253 33.3021 54.6634 33.2891 54.5918 33.2891C54.5189 33.2891 54.4564 33.306 54.4043 33.3398C54.3522 33.3724 54.3099 33.4173 54.2773 33.4746C54.2461 33.5319 54.2227 33.5996 54.207 33.6777C54.1927 33.7546 54.1855 33.8379 54.1855 33.9277ZM56.9609 32H57.5234V34.5156L57.4668 35H56.9609V32ZM58.8613 33.9219V33.9629C58.8613 34.1204 58.8444 34.265 58.8105 34.3965C58.778 34.528 58.7272 34.6419 58.6582 34.7383C58.5892 34.8333 58.5033 34.9076 58.4004 34.9609C58.2988 35.013 58.179 35.0391 58.041 35.0391C57.9121 35.0391 57.8001 35.013 57.7051 34.9609C57.6113 34.9089 57.5326 34.8353 57.4688 34.7402C57.4049 34.6452 57.3535 34.5339 57.3145 34.4062C57.2754 34.2786 57.2461 34.1393 57.2266 33.9883V33.8984C57.2461 33.7474 57.2754 33.6081 57.3145 33.4805C57.3535 33.3529 57.4049 33.2415 57.4688 33.1465C57.5326 33.0514 57.6113 32.9779 57.7051 32.9258C57.7988 32.8737 57.9095 32.8477 58.0371 32.8477C58.1764 32.8477 58.2975 32.8743 58.4004 32.9277C58.5046 32.9798 58.5905 33.054 58.6582 33.1504C58.7272 33.2454 58.778 33.3587 58.8105 33.4902C58.8444 33.6204 58.8613 33.7643 58.8613 33.9219ZM58.2988 33.9629V33.9219C58.2988 33.8359 58.2923 33.7552 58.2793 33.6797C58.2676 33.6029 58.2467 33.5358 58.2168 33.4785C58.1868 33.4199 58.1458 33.3737 58.0938 33.3398C58.043 33.306 57.9772 33.2891 57.8965 33.2891C57.8197 33.2891 57.7546 33.3021 57.7012 33.3281C57.6478 33.3542 57.6035 33.3906 57.5684 33.4375C57.5345 33.4844 57.5091 33.5404 57.4922 33.6055C57.4753 33.6693 57.4648 33.7396 57.4609 33.8164V34.0723C57.4648 34.1751 57.4818 34.2663 57.5117 34.3457C57.543 34.4238 57.5898 34.4857 57.6523 34.5312C57.7161 34.5755 57.7988 34.5977 57.9004 34.5977C57.9798 34.5977 58.0456 34.582 58.0977 34.5508C58.1497 34.5195 58.1901 34.4753 58.2188 34.418C58.2487 34.3607 58.2695 34.2936 58.2812 34.2168C58.293 34.1387 58.2988 34.054 58.2988 33.9629ZM59.8145 34.7617L60.375 32.8867H60.9785L60.1289 35.3184C60.1107 35.3717 60.0859 35.429 60.0547 35.4902C60.0247 35.5514 59.9837 35.6094 59.9316 35.6641C59.8809 35.7201 59.8164 35.7656 59.7383 35.8008C59.6615 35.8359 59.5671 35.8535 59.4551 35.8535C59.4017 35.8535 59.3581 35.8503 59.3242 35.8438C59.2904 35.8372 59.25 35.8281 59.2031 35.8164V35.4043C59.2174 35.4043 59.2324 35.4043 59.248 35.4043C59.2637 35.4056 59.2786 35.4062 59.293 35.4062C59.3672 35.4062 59.4277 35.3978 59.4746 35.3809C59.5215 35.3639 59.5592 35.3379 59.5879 35.3027C59.6165 35.2689 59.6393 35.2246 59.6562 35.1699L59.8145 34.7617ZM59.5801 32.8867L60.0391 34.418L60.1191 35.0137L59.7363 35.0547L58.9766 32.8867H59.5801Z" fill="black"/>
<path d="M63.7148 34.2559C63.7148 34.2051 63.707 34.1595 63.6914 34.1191C63.6771 34.0775 63.6497 34.0397 63.6094 34.0059C63.569 33.9707 63.5124 33.9362 63.4395 33.9023C63.3665 33.8685 63.2721 33.8333 63.1562 33.7969C63.0273 33.7552 62.9049 33.7083 62.7891 33.6562C62.6745 33.6042 62.5729 33.5436 62.4844 33.4746C62.3971 33.4043 62.3281 33.3229 62.2773 33.2305C62.2279 33.138 62.2031 33.0306 62.2031 32.9082C62.2031 32.7897 62.2292 32.6823 62.2812 32.5859C62.3333 32.4883 62.4062 32.4049 62.5 32.3359C62.5938 32.2656 62.7044 32.2116 62.832 32.1738C62.9609 32.1361 63.1022 32.1172 63.2559 32.1172C63.4655 32.1172 63.6484 32.1549 63.8047 32.2305C63.9609 32.306 64.082 32.4095 64.168 32.541C64.2552 32.6725 64.2988 32.8229 64.2988 32.9922H63.7168C63.7168 32.9089 63.6992 32.8359 63.6641 32.7734C63.6302 32.7096 63.5781 32.6595 63.5078 32.623C63.4388 32.5866 63.3516 32.5684 63.2461 32.5684C63.1445 32.5684 63.0599 32.584 62.9922 32.6152C62.9245 32.6452 62.8737 32.6862 62.8398 32.7383C62.806 32.7891 62.7891 32.8464 62.7891 32.9102C62.7891 32.9583 62.8008 33.002 62.8242 33.041C62.849 33.0801 62.8854 33.1165 62.9336 33.1504C62.9818 33.1842 63.041 33.2161 63.1113 33.2461C63.1816 33.276 63.263 33.3053 63.3555 33.334C63.5104 33.3809 63.6465 33.4336 63.7637 33.4922C63.8822 33.5508 63.9811 33.6165 64.0605 33.6895C64.14 33.7624 64.1999 33.8451 64.2402 33.9375C64.2806 34.0299 64.3008 34.1348 64.3008 34.252C64.3008 34.3757 64.2767 34.4863 64.2285 34.584C64.1803 34.6816 64.1107 34.7643 64.0195 34.832C63.9284 34.8997 63.8197 34.9512 63.6934 34.9863C63.5671 35.0215 63.4258 35.0391 63.2695 35.0391C63.1289 35.0391 62.9902 35.0208 62.8535 34.9844C62.7168 34.9466 62.5924 34.89 62.4805 34.8145C62.3698 34.7389 62.2812 34.6426 62.2148 34.5254C62.1484 34.4082 62.1152 34.2695 62.1152 34.1094H62.7031C62.7031 34.1979 62.7168 34.2728 62.7441 34.334C62.7715 34.3952 62.8099 34.4447 62.8594 34.4824C62.9102 34.5202 62.9701 34.5475 63.0391 34.5645C63.1094 34.5814 63.1862 34.5898 63.2695 34.5898C63.3711 34.5898 63.4544 34.5755 63.5195 34.5469C63.5859 34.5182 63.6348 34.4785 63.666 34.4277C63.6986 34.377 63.7148 34.3197 63.7148 34.2559ZM65.5371 34.5996C65.6061 34.5996 65.6673 34.5866 65.7207 34.5605C65.7741 34.5332 65.8158 34.4954 65.8457 34.4473C65.877 34.3978 65.8932 34.3398 65.8945 34.2734H66.4238C66.4225 34.4219 66.3828 34.554 66.3047 34.6699C66.2266 34.7845 66.1217 34.875 65.9902 34.9414C65.8587 35.0065 65.7116 35.0391 65.5488 35.0391C65.3848 35.0391 65.2415 35.0117 65.1191 34.957C64.998 34.9023 64.8971 34.8268 64.8164 34.7305C64.7357 34.6328 64.6751 34.5195 64.6348 34.3906C64.5944 34.2604 64.5742 34.1211 64.5742 33.9727V33.916C64.5742 33.7663 64.5944 33.627 64.6348 33.498C64.6751 33.3678 64.7357 33.2546 64.8164 33.1582C64.8971 33.0605 64.998 32.9844 65.1191 32.9297C65.2402 32.875 65.3822 32.8477 65.5449 32.8477C65.7181 32.8477 65.8698 32.8809 66 32.9473C66.1315 33.0137 66.2344 33.1087 66.3086 33.2324C66.3841 33.3548 66.4225 33.5 66.4238 33.668H65.8945C65.8932 33.5977 65.8783 33.5339 65.8496 33.4766C65.8223 33.4193 65.7819 33.3737 65.7285 33.3398C65.6764 33.3047 65.612 33.2871 65.5352 33.2871C65.4531 33.2871 65.3861 33.3047 65.334 33.3398C65.2819 33.3737 65.2415 33.4206 65.2129 33.4805C65.1842 33.5391 65.1641 33.6061 65.1523 33.6816C65.1419 33.7559 65.1367 33.834 65.1367 33.916V33.9727C65.1367 34.0547 65.1419 34.1335 65.1523 34.209C65.1628 34.2845 65.1823 34.3516 65.2109 34.4102C65.2409 34.4688 65.2819 34.515 65.334 34.5488C65.3861 34.5827 65.4538 34.5996 65.5371 34.5996ZM67.2988 32V35H66.7363V32H67.2988ZM67.2188 33.8691H67.0645C67.0658 33.722 67.0853 33.5866 67.123 33.4629C67.1608 33.3379 67.2148 33.2298 67.2852 33.1387C67.3555 33.0462 67.4395 32.9746 67.5371 32.9238C67.6361 32.873 67.7454 32.8477 67.8652 32.8477C67.9694 32.8477 68.0638 32.8626 68.1484 32.8926C68.2344 32.9212 68.3079 32.9681 68.3691 33.0332C68.4316 33.097 68.4798 33.181 68.5137 33.2852C68.5475 33.3893 68.5645 33.5156 68.5645 33.6641V35H67.998V33.6602C67.998 33.5664 67.9844 33.4928 67.957 33.4395C67.931 33.3848 67.8926 33.3464 67.8418 33.3242C67.7923 33.3008 67.7311 33.2891 67.6582 33.2891C67.5775 33.2891 67.5085 33.304 67.4512 33.334C67.3952 33.3639 67.3503 33.4056 67.3164 33.459C67.2826 33.5111 67.2578 33.5723 67.2422 33.6426C67.2266 33.7129 67.2188 33.7884 67.2188 33.8691ZM68.9023 33.9648V33.9238C68.9023 33.7689 68.9245 33.6263 68.9688 33.4961C69.013 33.3646 69.0775 33.2507 69.1621 33.1543C69.2467 33.0579 69.3509 32.9831 69.4746 32.9297C69.5983 32.875 69.7402 32.8477 69.9004 32.8477C70.0605 32.8477 70.2031 32.875 70.3281 32.9297C70.4531 32.9831 70.5579 33.0579 70.6426 33.1543C70.7285 33.2507 70.7936 33.3646 70.8379 33.4961C70.8822 33.6263 70.9043 33.7689 70.9043 33.9238V33.9648C70.9043 34.1185 70.8822 34.2611 70.8379 34.3926C70.7936 34.5228 70.7285 34.6367 70.6426 34.7344C70.5579 34.8307 70.4538 34.9056 70.3301 34.959C70.2064 35.0124 70.0645 35.0391 69.9043 35.0391C69.7441 35.0391 69.6016 35.0124 69.4766 34.959C69.3529 34.9056 69.248 34.8307 69.1621 34.7344C69.0775 34.6367 69.013 34.5228 68.9688 34.3926C68.9245 34.2611 68.9023 34.1185 68.9023 33.9648ZM69.4648 33.9238V33.9648C69.4648 34.0534 69.4727 34.1361 69.4883 34.2129C69.5039 34.2897 69.5286 34.3574 69.5625 34.416C69.5977 34.4733 69.6432 34.5182 69.6992 34.5508C69.7552 34.5833 69.8236 34.5996 69.9043 34.5996C69.9824 34.5996 70.0495 34.5833 70.1055 34.5508C70.1615 34.5182 70.2064 34.4733 70.2402 34.416C70.2741 34.3574 70.2988 34.2897 70.3145 34.2129C70.3314 34.1361 70.3398 34.0534 70.3398 33.9648V33.9238C70.3398 33.8379 70.3314 33.7572 70.3145 33.6816C70.2988 33.6048 70.2734 33.5371 70.2383 33.4785C70.2044 33.4186 70.1595 33.3717 70.1035 33.3379C70.0475 33.304 69.9798 33.2871 69.9004 33.2871C69.821 33.2871 69.7533 33.304 69.6973 33.3379C69.6426 33.3717 69.5977 33.4186 69.5625 33.4785C69.5286 33.5371 69.5039 33.6048 69.4883 33.6816C69.4727 33.7572 69.4648 33.8379 69.4648 33.9238ZM71.1602 33.9648V33.9238C71.1602 33.7689 71.1823 33.6263 71.2266 33.4961C71.2708 33.3646 71.3353 33.2507 71.4199 33.1543C71.5046 33.0579 71.6087 32.9831 71.7324 32.9297C71.8561 32.875 71.998 32.8477 72.1582 32.8477C72.3184 32.8477 72.4609 32.875 72.5859 32.9297C72.7109 32.9831 72.8158 33.0579 72.9004 33.1543C72.9863 33.2507 73.0514 33.3646 73.0957 33.4961C73.14 33.6263 73.1621 33.7689 73.1621 33.9238V33.9648C73.1621 34.1185 73.14 34.2611 73.0957 34.3926C73.0514 34.5228 72.9863 34.6367 72.9004 34.7344C72.8158 34.8307 72.7116 34.9056 72.5879 34.959C72.4642 35.0124 72.3223 35.0391 72.1621 35.0391C72.002 35.0391 71.8594 35.0124 71.7344 34.959C71.6107 34.9056 71.5059 34.8307 71.4199 34.7344C71.3353 34.6367 71.2708 34.5228 71.2266 34.3926C71.1823 34.2611 71.1602 34.1185 71.1602 33.9648ZM71.7227 33.9238V33.9648C71.7227 34.0534 71.7305 34.1361 71.7461 34.2129C71.7617 34.2897 71.7865 34.3574 71.8203 34.416C71.8555 34.4733 71.901 34.5182 71.957 34.5508C72.013 34.5833 72.0814 34.5996 72.1621 34.5996C72.2402 34.5996 72.3073 34.5833 72.3633 34.5508C72.4193 34.5182 72.4642 34.4733 72.498 34.416C72.5319 34.3574 72.5566 34.2897 72.5723 34.2129C72.5892 34.1361 72.5977 34.0534 72.5977 33.9648V33.9238C72.5977 33.8379 72.5892 33.7572 72.5723 33.6816C72.5566 33.6048 72.5312 33.5371 72.4961 33.4785C72.4622 33.4186 72.4173 33.3717 72.3613 33.3379C72.3053 33.304 72.2376 33.2871 72.1582 33.2871C72.0788 33.2871 72.0111 33.304 71.9551 33.3379C71.9004 33.3717 71.8555 33.4186 71.8203 33.4785C71.7865 33.5371 71.7617 33.6048 71.7461 33.6816C71.7305 33.7572 71.7227 33.8379 71.7227 33.9238ZM74.1016 32V35H73.5371V32H74.1016ZM75.1602 32.8867V35H74.5957V32.8867H75.1602ZM74.5605 32.3359C74.5605 32.2539 74.5892 32.1862 74.6465 32.1328C74.7038 32.0794 74.7806 32.0527 74.877 32.0527C74.972 32.0527 75.0482 32.0794 75.1055 32.1328C75.1641 32.1862 75.1934 32.2539 75.1934 32.3359C75.1934 32.418 75.1641 32.4857 75.1055 32.5391C75.0482 32.5924 74.972 32.6191 74.877 32.6191C74.7806 32.6191 74.7038 32.5924 74.6465 32.5391C74.5892 32.4857 74.5605 32.418 74.5605 32.3359ZM76.5977 35.0391C76.4336 35.0391 76.2865 35.013 76.1562 34.9609C76.026 34.9076 75.9154 34.834 75.8242 34.7402C75.7344 34.6465 75.6654 34.5378 75.6172 34.4141C75.569 34.2891 75.5449 34.1562 75.5449 34.0156V33.9375C75.5449 33.7773 75.5677 33.6309 75.6133 33.498C75.6589 33.3652 75.724 33.25 75.8086 33.1523C75.8945 33.0547 75.9987 32.9798 76.1211 32.9277C76.2435 32.8743 76.3815 32.8477 76.5352 32.8477C76.6849 32.8477 76.8177 32.8724 76.9336 32.9219C77.0495 32.9714 77.1465 33.0417 77.2246 33.1328C77.304 33.224 77.3639 33.3333 77.4043 33.4609C77.4447 33.5872 77.4648 33.7279 77.4648 33.8828V34.1172H75.7852V33.7422H76.9121V33.6992C76.9121 33.6211 76.8978 33.5514 76.8691 33.4902C76.8418 33.4277 76.8001 33.3783 76.7441 33.3418C76.6882 33.3053 76.6165 33.2871 76.5293 33.2871C76.4551 33.2871 76.3913 33.3034 76.3379 33.3359C76.2845 33.3685 76.2409 33.4141 76.207 33.4727C76.1745 33.5312 76.1497 33.6003 76.1328 33.6797C76.1172 33.7578 76.1094 33.8438 76.1094 33.9375V34.0156C76.1094 34.1003 76.1211 34.1784 76.1445 34.25C76.1693 34.3216 76.2038 34.3835 76.248 34.4355C76.2936 34.4876 76.3483 34.528 76.4121 34.5566C76.4772 34.5853 76.5508 34.5996 76.6328 34.5996C76.7344 34.5996 76.8288 34.5801 76.916 34.541C77.0046 34.5007 77.0807 34.4401 77.1445 34.3594L77.418 34.6562C77.3737 34.7201 77.3132 34.7812 77.2363 34.8398C77.1608 34.8984 77.0697 34.9466 76.9629 34.9844C76.8561 35.0208 76.7344 35.0391 76.5977 35.0391Z" fill="#EA580C"/>
</svg>
