<svg width="561" height="195" viewBox="0 0 561 195" fill="none" xmlns="http://www.w3.org/2000/svg">
<path d="M114.956 62.6912L101.364 62.6912C100.293 62.6912 99.2329 62.9022 98.2433 63.312C97.2543 63.7217 96.3553 64.3223 95.5975 65.0795C94.8403 65.8373 94.2398 66.7363 93.83 67.7253C93.4202 68.7148 93.2092 69.7754 93.2092 70.8463L93.2092 100.748C90.4907 111.619 89.9826 114.848 82.3358 122.494C74.6889 130.141 68.6854 136.086 57.8711 136.086C52.5164 136.086 49.2263 135.417 44.2793 133.368C39.3322 131.319 34.474 126.281 30.6877 122.494C26.9014 118.708 27.3001 119.287 25.251 114.339C23.2019 109.392 22.5329 106.103 22.5329 100.748L22.5329 70.8487C22.5332 69.7778 22.3225 68.7167 21.9129 67.7271C21.5032 66.7375 20.9025 65.8379 20.1452 65.0807C19.3879 64.3229 18.4888 63.7224 17.4992 63.312C16.5096 62.9022 15.449 62.6912 14.3778 62.6912L0.786129 62.6912L0.786131 98.0299C0.786131 105.526 2.26268 112.949 5.13147 119.875C8.00026 126.801 12.2051 133.094 17.5059 138.395C22.8068 143.696 29.0998 147.9 36.0257 150.769C42.9515 153.638 50.3746 155.114 57.8711 155.114C73.0106 155.114 87.5306 149.1 98.2361 138.395C108.942 127.689 114.956 113.17 114.956 98.0299L114.956 62.6912Z" fill="#EA580C"/>
<circle cx="25.251" cy="59.6329" r="24.4649" fill="#0F172A"/>
<path d="M180.365 62.7284V80.0577H126.848V62.7284H180.365ZM140.1 40.0474H164.565V126.949C164.565 129.61 164.905 131.649 165.585 133.065C166.321 134.481 167.397 135.472 168.813 136.038C170.228 136.548 172.012 136.803 174.164 136.803C175.693 136.803 177.052 136.746 178.242 136.633C179.488 136.463 180.535 136.293 181.385 136.123L181.47 154.132C179.374 154.811 177.109 155.349 174.674 155.746C172.239 156.142 169.549 156.341 166.604 156.341C161.224 156.341 156.523 155.463 152.503 153.707C148.538 151.895 145.48 149.007 143.328 145.043C141.176 141.078 140.1 135.868 140.1 129.412V40.0474ZM243.906 133.914V92.9697C243.906 90.0248 243.425 87.5047 242.462 85.4094C241.499 83.2574 239.999 81.5867 237.96 80.3975C235.978 79.2082 233.401 78.6136 230.23 78.6136C227.511 78.6136 225.161 79.0949 223.179 80.0577C221.197 80.9638 219.668 82.2946 218.592 84.0502C217.516 85.7492 216.978 87.7596 216.978 90.0815H192.513C192.513 86.1739 193.419 82.4645 195.231 78.9533C197.043 75.4422 199.677 72.3558 203.131 69.6941C206.586 66.9757 210.692 64.8521 215.449 63.323C220.262 61.7939 225.642 61.0294 231.589 61.0294C238.724 61.0294 245.067 62.2187 250.617 64.5972C256.167 66.9757 260.528 70.5435 263.699 75.3006C266.927 80.0577 268.541 86.004 268.541 93.1396V132.47C268.541 137.511 268.852 141.645 269.475 144.873C270.098 148.044 271.004 150.819 272.194 153.197V154.642H247.474C246.285 152.15 245.379 149.035 244.756 145.297C244.189 141.503 243.906 137.709 243.906 133.914ZM247.134 98.6612L247.304 112.508H233.628C230.4 112.508 227.596 112.876 225.218 113.612C222.839 114.348 220.885 115.396 219.356 116.755C217.827 118.058 216.695 119.587 215.958 121.342C215.279 123.098 214.939 125.023 214.939 127.119C214.939 129.214 215.42 131.111 216.383 132.81C217.346 134.452 218.733 135.755 220.546 136.718C222.358 137.624 224.482 138.077 226.917 138.077C230.598 138.077 233.797 137.341 236.516 135.868C239.234 134.396 241.329 132.584 242.802 130.432C244.331 128.28 245.124 126.241 245.18 124.315L251.636 134.679C250.73 137.001 249.484 139.408 247.899 141.899C246.37 144.391 244.416 146.741 242.037 148.95C239.659 151.102 236.799 152.886 233.458 154.302C230.116 155.661 226.152 156.341 221.565 156.341C215.732 156.341 210.437 155.18 205.68 152.858C200.979 150.479 197.242 147.223 194.467 143.089C191.748 138.898 190.389 134.141 190.389 128.818C190.389 124.004 191.295 119.728 193.108 115.99C194.92 112.253 197.581 109.11 201.093 106.561C204.66 103.956 209.106 102.002 214.429 100.7C219.753 99.3408 225.926 98.6612 232.948 98.6612H247.134ZM313.223 24.1622V154.642H288.674V24.1622H313.223ZM357.906 24.0772V154.642H333.441V24.0772H357.906ZM415.84 62.7284L375.915 108.26L354.508 129.922L345.588 112.253L362.578 90.6761L386.448 62.7284H415.84ZM390.441 154.642L363.257 112.168L380.162 97.387L418.643 154.642H390.441ZM476.068 129.242C476.068 127.487 475.558 125.901 474.539 124.485C473.519 123.069 471.622 121.767 468.847 120.578C466.129 119.332 462.193 118.199 457.04 117.18C452.396 116.16 448.063 114.886 444.043 113.357C440.078 111.771 436.624 109.874 433.679 107.666C430.791 105.457 428.526 102.852 426.883 99.8504C425.241 96.7923 424.42 93.3095 424.42 89.4019C424.42 85.5509 425.241 81.9265 426.883 78.5286C428.582 75.1307 430.989 72.1292 434.104 69.5242C437.275 66.8625 441.126 64.7954 445.657 63.323C450.244 61.7939 455.397 61.0294 461.117 61.0294C469.102 61.0294 475.955 62.3036 481.674 64.8521C487.451 67.4005 491.868 70.9116 494.926 75.3856C498.041 79.8028 499.598 84.843 499.598 90.5062H475.133C475.133 88.1277 474.624 86.004 473.604 84.1351C472.642 82.2097 471.113 80.7089 469.017 79.6329C466.978 78.5003 464.317 77.934 461.032 77.934C458.314 77.934 455.964 78.4153 453.981 79.3781C451.999 80.2842 450.47 81.5301 449.394 83.1158C448.375 84.6448 447.865 86.3438 447.865 88.2126C447.865 89.6284 448.148 90.9026 448.715 92.0353C449.338 93.1113 450.329 94.1023 451.688 95.0084C453.047 95.9145 454.803 96.764 456.955 97.5569C459.163 98.2931 461.882 98.9727 465.11 99.5956C471.735 100.955 477.653 102.739 482.864 104.947C488.074 107.099 492.208 110.044 495.266 113.782C498.324 117.463 499.853 122.305 499.853 128.308C499.853 132.385 498.947 136.123 497.135 139.521C495.323 142.919 492.718 145.892 489.32 148.44C485.922 150.932 481.844 152.886 477.087 154.302C472.387 155.661 467.092 156.341 461.202 156.341C452.651 156.341 445.402 154.811 439.455 151.753C433.566 148.695 429.092 144.816 426.034 140.116C423.032 135.359 421.531 130.488 421.531 125.505H444.722C444.835 128.846 445.685 131.536 447.271 133.575C448.913 135.613 450.98 137.086 453.472 137.992C456.02 138.898 458.767 139.351 461.712 139.351C464.883 139.351 467.516 138.926 469.612 138.077C471.707 137.171 473.293 135.981 474.369 134.509C475.501 132.98 476.068 131.224 476.068 129.242Z" fill="#0F172A"/>
<path d="M225.653 184.743H221.714V182.258H225.653C226.262 182.258 226.758 182.159 227.14 181.961C227.522 181.756 227.802 181.472 227.979 181.111C228.156 180.75 228.244 180.343 228.244 179.89C228.244 179.43 228.156 179.002 227.979 178.605C227.802 178.209 227.522 177.891 227.14 177.65C226.758 177.409 226.262 177.289 225.653 177.289H222.818V190.254H219.633V174.793H225.653C226.864 174.793 227.901 175.013 228.765 175.452C229.635 175.884 230.301 176.482 230.761 177.246C231.221 178.011 231.451 178.885 231.451 179.869C231.451 180.867 231.221 181.731 230.761 182.46C230.301 183.189 229.635 183.752 228.765 184.148C227.901 184.545 226.864 184.743 225.653 184.743ZM232.821 184.626V184.403C232.821 183.561 232.941 182.786 233.182 182.078C233.423 181.363 233.773 180.743 234.233 180.219C234.693 179.696 235.26 179.289 235.932 178.998C236.605 178.701 237.376 178.552 238.247 178.552C239.118 178.552 239.893 178.701 240.572 178.998C241.252 179.289 241.822 179.696 242.282 180.219C242.749 180.743 243.103 181.363 243.344 182.078C243.585 182.786 243.705 183.561 243.705 184.403V184.626C243.705 185.461 243.585 186.237 243.344 186.952C243.103 187.659 242.749 188.279 242.282 188.81C241.822 189.334 241.256 189.741 240.583 190.031C239.911 190.321 239.139 190.466 238.268 190.466C237.397 190.466 236.622 190.321 235.943 190.031C235.27 189.741 234.7 189.334 234.233 188.81C233.773 188.279 233.423 187.659 233.182 186.952C232.941 186.237 232.821 185.461 232.821 184.626ZM235.879 184.403V184.626C235.879 185.108 235.922 185.557 236.006 185.975C236.091 186.392 236.226 186.76 236.41 187.079C236.601 187.39 236.849 187.635 237.153 187.812C237.458 187.989 237.829 188.077 238.268 188.077C238.693 188.077 239.058 187.989 239.362 187.812C239.666 187.635 239.911 187.39 240.095 187.079C240.279 186.76 240.413 186.392 240.498 185.975C240.59 185.557 240.636 185.108 240.636 184.626V184.403C240.636 183.936 240.59 183.497 240.498 183.086C240.413 182.669 240.275 182.301 240.084 181.982C239.9 181.657 239.656 181.402 239.351 181.218C239.047 181.034 238.679 180.942 238.247 180.942C237.815 180.942 237.447 181.034 237.143 181.218C236.845 181.402 236.601 181.657 236.41 181.982C236.226 182.301 236.091 182.669 236.006 183.086C235.922 183.497 235.879 183.936 235.879 184.403ZM248.865 187.281L251.255 178.765H253.198L252.571 182.11L250.182 190.254H248.557L248.865 187.281ZM247.655 178.765L249.364 187.27L249.524 190.254H247.612L244.703 178.765H247.655ZM255.385 187.132L257.052 178.765H260.015L257.105 190.254H255.205L255.385 187.132ZM253.463 178.765L255.842 187.217L256.171 190.254H254.536L252.147 182.12L251.541 178.765H253.463ZM266.842 190.466C265.95 190.466 265.151 190.325 264.443 190.042C263.735 189.751 263.133 189.351 262.638 188.842C262.149 188.332 261.774 187.741 261.512 187.068C261.25 186.389 261.119 185.667 261.119 184.902V184.477C261.119 183.607 261.243 182.81 261.491 182.088C261.738 181.366 262.092 180.74 262.553 180.209C263.02 179.678 263.586 179.271 264.252 178.988C264.917 178.698 265.667 178.552 266.503 178.552C267.317 178.552 268.039 178.687 268.669 178.956C269.299 179.225 269.826 179.607 270.251 180.103C270.683 180.598 271.008 181.193 271.228 181.887C271.447 182.573 271.557 183.338 271.557 184.18V185.454H262.425V183.416H268.552V183.182C268.552 182.757 268.474 182.379 268.318 182.046C268.17 181.706 267.943 181.437 267.639 181.239C267.334 181.041 266.945 180.942 266.471 180.942C266.067 180.942 265.72 181.03 265.43 181.207C265.14 181.384 264.903 181.632 264.719 181.95C264.542 182.269 264.407 182.644 264.315 183.076C264.23 183.501 264.188 183.968 264.188 184.477V184.902C264.188 185.362 264.252 185.787 264.379 186.176C264.513 186.566 264.701 186.902 264.942 187.185C265.189 187.468 265.487 187.688 265.834 187.844C266.188 187.999 266.588 188.077 267.034 188.077C267.586 188.077 268.099 187.971 268.573 187.759C269.055 187.539 269.469 187.21 269.816 186.771L271.302 188.385C271.061 188.732 270.732 189.065 270.315 189.383C269.904 189.702 269.409 189.964 268.828 190.169C268.248 190.367 267.586 190.466 266.842 190.466ZM276.357 181.271V190.254H273.298V178.765H276.176L276.357 181.271ZM279.818 178.69L279.765 181.526C279.616 181.504 279.436 181.487 279.224 181.472C279.018 181.451 278.831 181.441 278.661 181.441C278.229 181.441 277.854 181.497 277.535 181.61C277.224 181.717 276.962 181.876 276.749 182.088C276.544 182.301 276.388 182.559 276.282 182.863C276.183 183.168 276.126 183.515 276.112 183.904L275.496 183.713C275.496 182.97 275.571 182.287 275.719 181.664C275.868 181.034 276.084 180.485 276.367 180.018C276.657 179.551 277.011 179.189 277.429 178.935C277.847 178.68 278.325 178.552 278.863 178.552C279.032 178.552 279.206 178.567 279.383 178.595C279.56 178.616 279.705 178.648 279.818 178.69ZM286.338 190.466C285.446 190.466 284.646 190.325 283.938 190.042C283.23 189.751 282.629 189.351 282.133 188.842C281.645 188.332 281.269 187.741 281.007 187.068C280.746 186.389 280.615 185.667 280.615 184.902V184.477C280.615 183.607 280.738 182.81 280.986 182.088C281.234 181.366 281.588 180.74 282.048 180.209C282.515 179.678 283.082 179.271 283.747 178.988C284.412 178.698 285.163 178.552 285.998 178.552C286.812 178.552 287.534 178.687 288.164 178.956C288.794 179.225 289.322 179.607 289.746 180.103C290.178 180.598 290.504 181.193 290.723 181.887C290.943 182.573 291.052 183.338 291.052 184.18V185.454H281.921V183.416H288.047V183.182C288.047 182.757 287.97 182.379 287.814 182.046C287.665 181.706 287.439 181.437 287.134 181.239C286.83 181.041 286.441 180.942 285.966 180.942C285.563 180.942 285.216 181.03 284.926 181.207C284.635 181.384 284.398 181.632 284.214 181.95C284.037 182.269 283.903 182.644 283.811 183.076C283.726 183.501 283.683 183.968 283.683 184.477V184.902C283.683 185.362 283.747 185.787 283.874 186.176C284.009 186.566 284.197 186.902 284.437 187.185C284.685 187.468 284.982 187.688 285.329 187.844C285.683 187.999 286.083 188.077 286.529 188.077C287.081 188.077 287.594 187.971 288.069 187.759C288.55 187.539 288.964 187.21 289.311 186.771L290.798 188.385C290.557 188.732 290.228 189.065 289.81 189.383C289.4 189.702 288.904 189.964 288.324 190.169C287.743 190.367 287.081 190.466 286.338 190.466ZM299.579 187.748V173.944H302.658V190.254H299.887L299.579 187.748ZM292.316 184.647V184.424C292.316 183.547 292.415 182.75 292.613 182.035C292.812 181.313 293.102 180.694 293.484 180.177C293.866 179.66 294.337 179.26 294.896 178.977C295.456 178.694 296.093 178.552 296.808 178.552C297.48 178.552 298.068 178.694 298.57 178.977C299.08 179.26 299.512 179.664 299.866 180.188C300.227 180.704 300.517 181.317 300.736 182.025C300.956 182.725 301.115 183.493 301.214 184.329V184.817C301.115 185.617 300.956 186.36 300.736 187.047C300.517 187.734 300.227 188.336 299.866 188.852C299.512 189.362 299.08 189.758 298.57 190.042C298.061 190.325 297.466 190.466 296.786 190.466C296.071 190.466 295.434 190.321 294.875 190.031C294.323 189.741 293.856 189.334 293.473 188.81C293.098 188.286 292.812 187.67 292.613 186.962C292.415 186.254 292.316 185.483 292.316 184.647ZM295.374 184.424V184.647C295.374 185.122 295.41 185.564 295.48 185.975C295.558 186.385 295.682 186.75 295.852 187.068C296.029 187.38 296.256 187.624 296.532 187.801C296.815 187.971 297.158 188.056 297.562 188.056C298.085 188.056 298.517 187.939 298.857 187.705C299.197 187.465 299.455 187.136 299.632 186.718C299.816 186.3 299.922 185.819 299.951 185.274V183.883C299.929 183.437 299.866 183.037 299.76 182.683C299.66 182.322 299.512 182.014 299.314 181.759C299.122 181.504 298.882 181.306 298.592 181.165C298.308 181.023 297.972 180.952 297.583 180.952C297.186 180.952 296.847 181.044 296.563 181.228C296.28 181.405 296.05 181.649 295.873 181.961C295.703 182.272 295.576 182.64 295.491 183.065C295.413 183.483 295.374 183.936 295.374 184.424ZM310.463 173.944H313.521V187.621L313.213 190.254H310.463V173.944ZM320.795 184.393V184.616C320.795 185.472 320.703 186.258 320.519 186.973C320.342 187.688 320.066 188.307 319.69 188.831C319.315 189.348 318.848 189.751 318.289 190.042C317.737 190.325 317.085 190.466 316.335 190.466C315.634 190.466 315.025 190.325 314.509 190.042C313.999 189.758 313.571 189.358 313.224 188.842C312.877 188.325 312.597 187.72 312.385 187.026C312.173 186.332 312.013 185.575 311.907 184.754V184.265C312.013 183.444 312.173 182.686 312.385 181.993C312.597 181.299 312.877 180.694 313.224 180.177C313.571 179.66 313.999 179.26 314.509 178.977C315.018 178.694 315.62 178.552 316.314 178.552C317.071 178.552 317.73 178.698 318.289 178.988C318.855 179.271 319.322 179.674 319.69 180.198C320.066 180.715 320.342 181.331 320.519 182.046C320.703 182.754 320.795 183.536 320.795 184.393ZM317.737 184.616V184.393C317.737 183.925 317.701 183.486 317.63 183.076C317.567 182.658 317.453 182.294 317.291 181.982C317.128 181.664 316.905 181.412 316.622 181.228C316.346 181.044 315.988 180.952 315.549 180.952C315.132 180.952 314.778 181.023 314.487 181.165C314.197 181.306 313.956 181.504 313.765 181.759C313.581 182.014 313.443 182.318 313.351 182.672C313.259 183.019 313.203 183.401 313.181 183.819V185.21C313.203 185.769 313.295 186.265 313.457 186.697C313.627 187.121 313.882 187.458 314.222 187.705C314.569 187.946 315.018 188.067 315.57 188.067C316.002 188.067 316.36 187.982 316.643 187.812C316.926 187.642 317.146 187.401 317.301 187.09C317.464 186.778 317.577 186.414 317.641 185.996C317.705 185.571 317.737 185.111 317.737 184.616ZM325.977 188.958L329.024 178.765H332.305L327.686 191.985C327.587 192.275 327.452 192.586 327.283 192.919C327.12 193.252 326.897 193.567 326.614 193.864C326.338 194.169 325.987 194.416 325.562 194.607C325.145 194.799 324.632 194.894 324.023 194.894C323.733 194.894 323.495 194.876 323.311 194.841C323.127 194.806 322.908 194.756 322.653 194.692V192.452C322.731 192.452 322.812 192.452 322.897 192.452C322.982 192.459 323.064 192.463 323.141 192.463C323.545 192.463 323.874 192.417 324.129 192.325C324.384 192.232 324.589 192.091 324.745 191.9C324.901 191.716 325.024 191.475 325.116 191.178L325.977 188.958ZM324.702 178.765L327.198 187.09L327.633 190.328L325.552 190.551L321.421 178.765H324.702Z" fill="black"/>
<path d="M347.182 186.208C347.182 185.932 347.139 185.684 347.054 185.465C346.976 185.238 346.828 185.033 346.608 184.849C346.389 184.658 346.081 184.47 345.684 184.286C345.288 184.102 344.775 183.911 344.145 183.713C343.444 183.486 342.778 183.232 342.148 182.948C341.525 182.665 340.973 182.336 340.492 181.961C340.018 181.579 339.642 181.136 339.366 180.634C339.097 180.131 338.963 179.547 338.963 178.882C338.963 178.237 339.104 177.653 339.388 177.13C339.671 176.599 340.067 176.146 340.577 175.77C341.087 175.388 341.688 175.094 342.382 174.889C343.083 174.684 343.851 174.581 344.686 174.581C345.826 174.581 346.821 174.786 347.67 175.197C348.519 175.608 349.178 176.17 349.645 176.885C350.119 177.6 350.356 178.418 350.356 179.338H347.192C347.192 178.885 347.097 178.489 346.905 178.149C346.721 177.802 346.438 177.529 346.056 177.331C345.681 177.133 345.207 177.034 344.633 177.034C344.081 177.034 343.621 177.119 343.253 177.289C342.885 177.452 342.609 177.675 342.425 177.958C342.24 178.234 342.148 178.545 342.148 178.892C342.148 179.154 342.212 179.391 342.34 179.604C342.474 179.816 342.672 180.014 342.934 180.198C343.196 180.382 343.518 180.556 343.9 180.719C344.283 180.881 344.725 181.041 345.228 181.196C346.07 181.451 346.81 181.738 347.447 182.056C348.091 182.375 348.629 182.733 349.061 183.129C349.493 183.525 349.818 183.975 350.038 184.477C350.257 184.98 350.367 185.55 350.367 186.187C350.367 186.86 350.236 187.461 349.974 187.992C349.712 188.523 349.334 188.973 348.838 189.341C348.343 189.709 347.751 189.988 347.065 190.18C346.378 190.371 345.61 190.466 344.761 190.466C343.996 190.466 343.242 190.367 342.499 190.169C341.756 189.964 341.079 189.656 340.471 189.245C339.869 188.835 339.388 188.311 339.027 187.674C338.666 187.037 338.485 186.283 338.485 185.412H341.681C341.681 185.893 341.756 186.3 341.904 186.633C342.053 186.966 342.262 187.235 342.531 187.44C342.807 187.645 343.132 187.794 343.508 187.886C343.89 187.978 344.308 188.024 344.761 188.024C345.313 188.024 345.766 187.946 346.12 187.79C346.481 187.635 346.746 187.419 346.916 187.143C347.093 186.867 347.182 186.555 347.182 186.208ZM357.089 188.077C357.464 188.077 357.796 188.006 358.087 187.865C358.377 187.716 358.603 187.511 358.766 187.249C358.936 186.98 359.025 186.665 359.032 186.304H361.909C361.902 187.111 361.686 187.829 361.262 188.459C360.837 189.082 360.267 189.574 359.552 189.935C358.837 190.289 358.037 190.466 357.152 190.466C356.26 190.466 355.482 190.318 354.816 190.02C354.158 189.723 353.609 189.312 353.17 188.789C352.731 188.258 352.402 187.642 352.183 186.941C351.963 186.233 351.854 185.476 351.854 184.669V184.361C351.854 183.547 351.963 182.789 352.183 182.088C352.402 181.38 352.731 180.765 353.17 180.241C353.609 179.71 354.158 179.296 354.816 178.998C355.475 178.701 356.246 178.552 357.131 178.552C358.073 178.552 358.897 178.733 359.605 179.094C360.32 179.455 360.879 179.972 361.283 180.644C361.693 181.31 361.902 182.099 361.909 183.012H359.032C359.025 182.63 358.943 182.283 358.788 181.972C358.639 181.66 358.419 181.412 358.129 181.228C357.846 181.037 357.496 180.942 357.078 180.942C356.632 180.942 356.267 181.037 355.984 181.228C355.701 181.412 355.482 181.667 355.326 181.993C355.17 182.311 355.06 182.676 354.997 183.086C354.94 183.49 354.912 183.915 354.912 184.361V184.669C354.912 185.115 354.94 185.543 354.997 185.953C355.053 186.364 355.16 186.729 355.315 187.047C355.478 187.366 355.701 187.617 355.984 187.801C356.267 187.985 356.636 188.077 357.089 188.077ZM366.666 173.944V190.254H363.608V173.944H366.666ZM366.231 184.106H365.392C365.399 183.306 365.505 182.57 365.711 181.897C365.916 181.218 366.21 180.63 366.592 180.135C366.974 179.632 367.431 179.243 367.962 178.967C368.5 178.69 369.094 178.552 369.746 178.552C370.312 178.552 370.825 178.634 371.285 178.797C371.753 178.952 372.153 179.207 372.485 179.561C372.825 179.908 373.087 180.365 373.271 180.931C373.455 181.497 373.547 182.184 373.547 182.991V190.254H370.468V182.97C370.468 182.46 370.393 182.06 370.245 181.77C370.103 181.472 369.894 181.264 369.618 181.143C369.349 181.016 369.017 180.952 368.62 180.952C368.181 180.952 367.806 181.034 367.495 181.196C367.19 181.359 366.946 181.586 366.762 181.876C366.578 182.159 366.443 182.492 366.358 182.874C366.274 183.256 366.231 183.667 366.231 184.106ZM375.384 184.626V184.403C375.384 183.561 375.504 182.786 375.745 182.078C375.986 181.363 376.336 180.743 376.796 180.219C377.257 179.696 377.823 179.289 378.495 178.998C379.168 178.701 379.939 178.552 380.81 178.552C381.681 178.552 382.456 178.701 383.136 178.998C383.815 179.289 384.385 179.696 384.845 180.219C385.312 180.743 385.666 181.363 385.907 182.078C386.148 182.786 386.268 183.561 386.268 184.403V184.626C386.268 185.461 386.148 186.237 385.907 186.952C385.666 187.659 385.312 188.279 384.845 188.81C384.385 189.334 383.819 189.741 383.146 190.031C382.474 190.321 381.702 190.466 380.831 190.466C379.961 190.466 379.186 190.321 378.506 190.031C377.833 189.741 377.264 189.334 376.796 188.81C376.336 188.279 375.986 187.659 375.745 186.952C375.504 186.237 375.384 185.461 375.384 184.626ZM378.442 184.403V184.626C378.442 185.108 378.485 185.557 378.57 185.975C378.655 186.392 378.789 186.76 378.973 187.079C379.164 187.39 379.412 187.635 379.716 187.812C380.021 187.989 380.393 188.077 380.831 188.077C381.256 188.077 381.621 187.989 381.925 187.812C382.229 187.635 382.474 187.39 382.658 187.079C382.842 186.76 382.976 186.392 383.061 185.975C383.153 185.557 383.199 185.108 383.199 184.626V184.403C383.199 183.936 383.153 183.497 383.061 183.086C382.976 182.669 382.838 182.301 382.647 181.982C382.463 181.657 382.219 181.402 381.914 181.218C381.61 181.034 381.242 180.942 380.81 180.942C380.378 180.942 380.01 181.034 379.706 181.218C379.409 181.402 379.164 181.657 378.973 181.982C378.789 182.301 378.655 182.669 378.57 183.086C378.485 183.497 378.442 183.936 378.442 184.403ZM387.659 184.626V184.403C387.659 183.561 387.779 182.786 388.02 182.078C388.261 181.363 388.611 180.743 389.071 180.219C389.531 179.696 390.098 179.289 390.77 178.998C391.443 178.701 392.214 178.552 393.085 178.552C393.956 178.552 394.731 178.701 395.411 178.998C396.09 179.289 396.66 179.696 397.12 180.219C397.587 180.743 397.941 181.363 398.182 182.078C398.423 182.786 398.543 183.561 398.543 184.403V184.626C398.543 185.461 398.423 186.237 398.182 186.952C397.941 187.659 397.587 188.279 397.12 188.81C396.66 189.334 396.094 189.741 395.421 190.031C394.749 190.321 393.977 190.466 393.106 190.466C392.236 190.466 391.46 190.321 390.781 190.031C390.108 189.741 389.539 189.334 389.071 188.81C388.611 188.279 388.261 187.659 388.02 186.952C387.779 186.237 387.659 185.461 387.659 184.626ZM390.717 184.403V184.626C390.717 185.108 390.76 185.557 390.845 185.975C390.93 186.392 391.064 186.76 391.248 187.079C391.439 187.39 391.687 187.635 391.991 187.812C392.296 187.989 392.667 188.077 393.106 188.077C393.531 188.077 393.896 187.989 394.2 187.812C394.504 187.635 394.749 187.39 394.933 187.079C395.117 186.76 395.251 186.392 395.336 185.975C395.428 185.557 395.474 185.108 395.474 184.626V184.403C395.474 183.936 395.428 183.497 395.336 183.086C395.251 182.669 395.113 182.301 394.922 181.982C394.738 181.657 394.494 181.402 394.189 181.218C393.885 181.034 393.517 180.942 393.085 180.942C392.653 180.942 392.285 181.034 391.981 181.218C391.683 181.402 391.439 181.657 391.248 181.982C391.064 182.301 390.93 182.669 390.845 183.086C390.76 183.497 390.717 183.936 390.717 184.403ZM403.65 173.944V190.254H400.582V173.944H403.65ZM409.406 178.765V190.254H406.337V178.765H409.406ZM406.146 175.77C406.146 175.324 406.302 174.956 406.613 174.666C406.924 174.376 407.342 174.231 407.866 174.231C408.383 174.231 408.797 174.376 409.108 174.666C409.427 174.956 409.586 175.324 409.586 175.77C409.586 176.216 409.427 176.584 409.108 176.875C408.797 177.165 408.383 177.31 407.866 177.31C407.342 177.31 406.924 177.165 406.613 176.875C406.302 176.584 406.146 176.216 406.146 175.77ZM417.221 190.466C416.329 190.466 415.529 190.325 414.821 190.042C414.113 189.751 413.511 189.351 413.016 188.842C412.527 188.332 412.152 187.741 411.89 187.068C411.628 186.389 411.497 185.667 411.497 184.902V184.477C411.497 183.607 411.621 182.81 411.869 182.088C412.117 181.366 412.471 180.74 412.931 180.209C413.398 179.678 413.964 179.271 414.63 178.988C415.295 178.698 416.046 178.552 416.881 178.552C417.695 178.552 418.417 178.687 419.047 178.956C419.677 179.225 420.205 179.607 420.629 180.103C421.061 180.598 421.387 181.193 421.606 181.887C421.826 182.573 421.935 183.338 421.935 184.18V185.454H412.804V183.416H418.93V183.182C418.93 182.757 418.853 182.379 418.697 182.046C418.548 181.706 418.322 181.437 418.017 181.239C417.713 181.041 417.323 180.942 416.849 180.942C416.446 180.942 416.099 181.03 415.809 181.207C415.518 181.384 415.281 181.632 415.097 181.95C414.92 182.269 414.786 182.644 414.694 183.076C414.609 183.501 414.566 183.968 414.566 184.477V184.902C414.566 185.362 414.63 185.787 414.757 186.176C414.892 186.566 415.079 186.902 415.32 187.185C415.568 187.468 415.865 187.688 416.212 187.844C416.566 187.999 416.966 188.077 417.412 188.077C417.964 188.077 418.477 187.971 418.952 187.759C419.433 187.539 419.847 187.21 420.194 186.771L421.681 188.385C421.44 188.732 421.111 189.065 420.693 189.383C420.282 189.702 419.787 189.964 419.206 190.169C418.626 190.367 417.964 190.466 417.221 190.466Z" fill="#EA580C"/>
</svg>
